:SAMPLES-PER-SECOND 30
:FULLY-SPECIFIED
:DEGREES
596
root  30.6236 37.64 6.41113 -162.7 -77.1148 158.579
RightUpLeg  -22.6113 -8.0752 -10.0733
RightLeg  7.00364 6.29489 -1.17074
RightFoot  -1.32785 -0.557653 6.32129
RightToes  6.35927e-011 1.30204e-014 -6.03759e-014
Spine  17.5671 -1.59375 4.33903
Spine1  14.4516 0.493059 -4.82893
HEad  -33.7726 3.12724 -11.0161
LeftShoulder1  0.949899 0.891163 -30.2795
LeftArm  -7.08704 -9.58639 -35.7142
LeftForeArm  36.2836 -77.5379 -65.4317
LeftHand  0.0222067 -0.0915326 -0.464366
RightShoulder  -0.182474 -4.04478 25.8789
RightArm  -23.9252 3.52765 24.0141
RightForeArm  73.5457 75.6577 123.261
RightHand  -0.131727 -1.20797 -3.50395
LeftUpLeg  1.40854 -5.28356 -6.96416
LeftLeg  25.9181 -2.96123 -1.21466
LeftFoot  -22.5491 0.729742 6.02734
LeftToes  -7.16024e-010 4.79583e-011 -5.98286e-011
597
root  29.4927 37.3447 5.7127 -160.38 -79.6389 156.049
RightUpLeg  -23.3589 -6.56387 -10.6689
RightLeg  12.9136 3.42229 -0.243131
RightFoot  3.66518 -0.664524 5.21905
RightToes  6.35927e-011 1.30204e-014 -6.03759e-014
Spine  17.7978 -2.05387 6.67752
Spine1  13.7594 0.450348 -5.27796
HEad  -32.2604 1.54812 -10.3577
LeftShoulder1  0.885109 1.09717 -30.702
LeftArm  -6.4528 -8.24402 -35.518
LeftForeArm  39.0768 -77.7302 -66.9052
LeftHand  0.0226324 0.114325 -0.515604
RightShoulder  -0.275246 -4.31792 26.4839
RightArm  -24.4864 0.426594 25.0586
RightForeArm  76.0138 75.3062 125.421
RightHand  -0.160607 -1.19907 -4.32555
LeftUpLeg  2.72446 -7.21161 -6.12178
LeftLeg  28.1663 -2.72837 -1.23436
LeftFoot  -24.4086 0.837894 6.07757
LeftToes  -7.16024e-010 4.79583e-011 -5.98286e-011
598
root  28.3286 37.0281 5.04226 -161.842 -82.2132 157.601
RightUpLeg  -24.7129 -6.15143 -10.3574
RightLeg  19.9018 2.27376 0.806339
RightFoot  6.08512 -0.677202 4.68113
RightToes  6.35927e-011 1.30204e-014 -6.03759e-014
Spine  17.6525 -2.7718 9.72606
Spine1  12.9871 0.214085 -5.55059
HEad  -31.4832 0.59293 -10.4345
LeftShoulder1  0.796652 1.36553 -31.1797
LeftArm  -6.38365 -6.71642 -35.5374
LeftForeArm  43.6513 -78.0314 -69.5782
LeftHand  0.00769074 0.0871056 -0.183597
RightShoulder  -0.349425 -4.52352 27.1741
RightArm  -24.7877 -1.11381 26.0208
RightForeArm  81.2813 74.5889 129.345
RightHand  -0.153258 -1.42128 -4.30432
LeftUpLeg  2.29739 -7.75408 -3.89942
LeftLeg  33.243 -3.69886 -2.2936
LeftFoot  -26.0427 0.553487 3.10737
LeftToes  -7.16024e-010 4.79583e-011 -5.98286e-011
599
root  27.198 36.7989 4.37028 -169.32 -84.885 165.319
RightUpLeg  -25.6734 -8.51269 -8.39293
RightLeg  26.082 3.10254 1.41526
RightFoot  3.62223 -0.511718 4.0583
RightToes  6.35927e-011 1.30204e-014 -6.03759e-014
Spine  16.7051 -3.41298 12.1465
Spine1  12.9204 -0.420076 -4.50158
HEad  -31.1307 0.523312 -10.8367
LeftShoulder1  0.735202 1.55256 -31.5936
LeftArm  -6.36803 -5.2942 -35.9396
LeftForeArm  49.7056 -78.3769 -73.0352
LeftHand  -0.0187857 -0.102606 0.412367
RightShoulder  -0.366345 -4.56789 27.3647
RightArm  -23.6846 -0.00181007 27.5403
RightForeArm  87.5421 73.1382 135.222
RightHand  -0.108725 -1.40145 -2.97656
LeftUpLeg  -0.240868 -6.85896 -0.525335
LeftLeg  41.2243 -4.9308 -4.22451
LeftFoot  -24.1463 -0.0567568 -2.03265
LeftToes  -7.16024e-010 4.79583e-011 -5.98286e-011
